<svg width="80" height="80" viewBox="0 0 80 80" fill="none" xmlns="http://www.w3.org/2000/svg">
<circle cx="40" cy="40" r="40" fill="url(#paint0_linear_52_17)"/>
<g clip-path="url(#clip0_52_17)">
<path d="M51.8281 33.25H51.4375V30.9062C51.4375 28.7188 46.5938 27 40.5 27C34.4062 27 29.5625 28.7188 29.5625 30.9062V33.25H29.1719C28.5249 33.25 28 33.7744 28 34.4219V38.3281C28 38.9751 28.5249 39.5 29.1719 39.5H29.5625V47.3125C29.5625 48.1753 30.2622 48.875 31.125 48.875V50.4375C31.125 51.3003 31.8247 52 32.6875 52H34.25C35.1128 52 35.8125 51.3003 35.8125 50.4375V48.875H45.1875V50.4375C45.1875 51.3003 45.8872 52 46.75 52H48.3125C49.1753 52 49.875 51.3003 49.875 50.4375V48.875H50.1875C50.9687 48.875 51.4375 48.25 51.4375 47.625V39.5H51.8281C52.4751 39.5 53 38.9751 53 38.3281V34.4219C53 33.7744 52.4751 33.25 51.8281 33.25ZM33.4688 46.5312C32.606 46.5312 31.9062 45.8315 31.9062 44.9688C31.9062 44.106 32.606 43.4062 33.4688 43.4062C34.3315 43.4062 35.0312 44.106 35.0312 44.9688C35.0312 45.8315 34.3315 46.5312 33.4688 46.5312ZM34.25 41.0625C33.3872 41.0625 32.6875 40.3628 32.6875 39.5V33.25C32.6875 32.3872 33.3872 31.6875 34.25 31.6875H46.75C47.6128 31.6875 48.3125 32.3872 48.3125 33.25V39.5C48.3125 40.3628 47.6128 41.0625 46.75 41.0625H34.25ZM47.5312 46.5312C46.6685 46.5312 45.9688 45.8315 45.9688 44.9688C45.9688 44.106 46.6685 43.4062 47.5312 43.4062C48.394 43.4062 49.0938 44.106 49.0938 44.9688C49.0938 45.8315 48.394 46.5312 47.5312 46.5312Z" fill="white"/>
</g>
<defs>
<linearGradient id="paint0_linear_52_17" x1="40" y1="0" x2="40" y2="80" gradientUnits="userSpaceOnUse">
<stop stop-color="#3A357E"/>
<stop offset="1" stop-color="#5C3DA3"/>
</linearGradient>
<clipPath id="clip0_52_17">
<rect width="25" height="25" fill="white" transform="translate(28 27)"/>
</clipPath>
</defs>
</svg>
