<svg width="80" height="80" viewBox="0 0 80 80" fill="none" xmlns="http://www.w3.org/2000/svg">
<circle cx="40" cy="40" r="40" fill="url(#paint0_linear_52_6)"/>
<path d="M46.132 33.2988C47.4001 33.5269 48.4401 34.2104 49.2531 35.3496C49.9684 36.3589 50.4562 37.6284 50.716 39.1582C50.944 40.5581 50.9269 41.9575 50.6672 43.3574C50.277 45.6685 49.4967 47.6055 48.3263 49.168C46.9279 51.0562 45.1725 52 43.0592 52C42.5387 52 41.9704 51.8374 41.3522 51.5117C40.9294 51.2515 40.4582 51.1211 39.9377 51.1211C39.4172 51.1211 38.9465 51.2515 38.5231 51.5117C37.9049 51.8374 37.3366 52 36.8161 52C34.7028 52 32.9474 51.0562 31.549 49.168C30.3786 47.6055 29.5983 45.6685 29.2082 43.3574C28.9484 41.9575 28.9313 40.5581 29.1593 39.1582C29.4191 37.6284 29.9069 36.3589 30.6222 35.3496C31.4352 34.2104 32.4753 33.5269 33.7433 33.2988C34.5236 33.1685 35.5964 33.2827 36.9621 33.6406C38.1325 33.9663 39.1242 34.3569 39.9372 34.8125C40.7502 34.3569 41.7419 33.9663 42.9123 33.6406C44.2785 33.2827 45.3517 33.1685 46.132 33.2988ZM43.4494 31.2969C42.9943 31.7202 42.3923 32.0293 41.6447 32.2246C41.1242 32.3872 40.5558 32.4688 39.9377 32.4688L39.2062 32.4199C39.1413 31.9644 39.1413 31.4434 39.2062 30.8574C39.3366 29.6855 39.7101 28.7905 40.3278 28.1719C40.7829 27.7485 41.3849 27.4395 42.1325 27.2441C42.653 27.0815 43.2214 27 43.8395 27L44.571 27.0488L44.6198 27.7812C44.6198 28.3999 44.5382 28.9692 44.3761 29.4902C44.1813 30.2388 43.8727 30.8413 43.4494 31.2969Z" fill="white"/>
<defs>
<linearGradient id="paint0_linear_52_6" x1="40" y1="0" x2="40" y2="80" gradientUnits="userSpaceOnUse">
<stop stop-color="#3A357E"/>
<stop offset="1" stop-color="#5C3DA3"/>
</linearGradient>
</defs>
</svg>
