<svg width="80" height="80" viewBox="0 0 80 80" fill="none" xmlns="http://www.w3.org/2000/svg">
<circle cx="40" cy="40" r="40" fill="url(#paint0_linear_52_7)"/>
<path d="M35.7423 44.7069C35.318 44.2826 35.5392 44.4022 34.5157 44.1283C34.0514 44.0038 33.6432 43.7646 33.274 43.4779L31.0587 48.9096C30.8443 49.4355 31.2447 50.0067 31.8121 49.9853L34.3849 49.8871L36.1544 51.7563C36.545 52.1684 37.2306 52.0399 37.4449 51.5141L39.9864 45.2826C39.4571 45.5775 38.8697 45.7504 38.2623 45.7504C37.3102 45.7504 36.4156 45.3798 35.7423 44.7069V44.7069ZM49.6915 48.9096L47.4762 43.4779C47.107 43.765 46.6988 44.0038 46.2345 44.1283C45.2057 44.4037 45.4312 44.2836 45.0079 44.7069C44.3346 45.3798 43.4395 45.7504 42.4874 45.7504C41.88 45.7504 41.2926 45.5771 40.7633 45.2826L43.3048 51.5141C43.5191 52.0399 44.2052 52.1684 44.5953 51.7563L46.3653 49.8871L48.9381 49.9853C49.5055 50.0067 49.9059 49.435 49.6915 48.9096V48.9096ZM43.8419 43.602C44.588 42.8427 44.6734 42.9081 45.7359 42.6186C46.4142 42.4335 46.9444 41.8939 47.1261 41.2035C47.4913 39.8168 47.3966 39.9843 48.3932 38.9696C48.8897 38.4643 49.0836 37.7274 48.902 37.037C48.5372 35.6513 48.5367 35.8446 48.902 34.4574C49.0836 33.767 48.8897 33.0302 48.3932 32.5248C47.3966 31.5102 47.4913 31.6772 47.1261 30.2909C46.9444 29.6005 46.4142 29.0609 45.7359 28.8759C44.3746 28.5043 44.5387 28.6015 43.5411 27.5863C43.0445 27.081 42.3204 26.8832 41.6422 27.0683C40.2813 27.4394 40.4713 27.4398 39.108 27.0683C38.4298 26.8832 37.7057 27.0805 37.2091 27.5863C36.2125 28.601 36.3766 28.5043 35.0147 28.8759C34.3365 29.0609 33.8062 29.6005 33.6246 30.2909C33.2599 31.6772 33.3541 31.5102 32.3575 32.5248C31.8609 33.0302 31.6666 33.767 31.8487 34.4574C32.2135 35.8422 32.214 35.6488 31.8487 37.0365C31.6671 37.727 31.8609 38.4638 32.3575 38.9696C33.3541 39.9843 33.2594 39.8168 33.6246 41.2035C33.8062 41.8939 34.3365 42.4335 35.0147 42.6186C36.1075 42.9164 36.1891 42.8695 36.9083 43.602C37.5543 44.2597 38.5606 44.3773 39.337 43.8861C39.6475 43.689 40.0076 43.5844 40.3753 43.5844C40.7431 43.5844 41.1032 43.689 41.4137 43.8861C42.1895 44.3773 43.1959 44.2597 43.8419 43.602ZM35.7687 35.5922C35.7687 33.0028 37.8312 30.9037 40.3751 30.9037C42.919 30.9037 44.9815 33.0028 44.9815 35.5922C44.9815 38.1815 42.919 40.2807 40.3751 40.2807C37.8312 40.2807 35.7687 38.1815 35.7687 35.5922V35.5922Z" fill="white"/>
<defs>
<linearGradient id="paint0_linear_52_7" x1="40" y1="0" x2="40" y2="80" gradientUnits="userSpaceOnUse">
<stop stop-color="#3A357E"/>
<stop offset="1" stop-color="#5C3DA3"/>
</linearGradient>
</defs>
</svg>
